<svg xmlns="http://www.w3.org/2000/svg" width="18" height="15" viewBox="0 0 18 15" fill="none">
<path d="M8.65422 12.1921H11.2369C11.7179 12.1617 13.7741 12.0457 15.3109 10.5534C15.847 10.0343 16.2722 9.41746 16.562 8.73834C16.8519 8.05923 17.0007 7.33119 17 6.59606C17 5.11189 16.3928 3.68851 15.312 2.63905C14.2312 1.58958 12.7654 1 11.2369 1H6.76308C5.23462 1 3.76876 1.58958 2.68797 2.63905C1.60719 3.68851 1.00001 5.11189 1.00001 6.59606C0.997604 7.97292 1.52022 9.30189 2.4671 10.3268L2.16401 13.5448C2.15608 13.623 2.17116 13.7016 2.20749 13.7718C2.24381 13.8419 2.2999 13.9005 2.36921 13.9409C2.43852 13.9813 2.51822 14.0018 2.59903 13.9999C2.67984 13.998 2.75844 13.9739 2.82569 13.9303L5.17361 12.427C5.4896 12.2264 5.86636 12.1357 6.24227 12.17C6.41302 12.1852 6.58663 12.1935 6.76308 12.1935M13.0384 6.5933C13.0384 6.30255 12.7957 6.06685 12.4963 6.06685C12.1968 6.06685 11.9541 6.30255 11.9541 6.5933C11.9541 6.88404 12.1968 7.11974 12.4963 7.11974M6.45572 6.5933C6.45572 6.88404 6.21298 7.11974 5.91356 7.11974C5.61414 7.11974 5.3714 6.88404 5.3714 6.5933C5.3714 6.30255 5.61414 6.06685 5.91356 6.06685C6.21298 6.06685 6.45572 6.30255 6.45572 6.5933ZM9.75988 6.5933C9.75988 6.88404 9.51714 7.11974 9.21772 7.11974C8.9183 7.11974 8.67556 6.88404 8.67556 6.5933C8.67556 6.30255 8.9183 6.06685 9.21772 6.06685C9.51714 6.06685 9.75988 6.30255 9.75988 6.5933Z" stroke="black" stroke-width="0.7" stroke-linecap="round" stroke-linejoin="round"/>
</svg>