<svg width="184" height="128" viewBox="0 0 184 128" fill="none" xmlns="http://www.w3.org/2000/svg">
<g clip-path="url(#clip0_77_5221)">
<path d="M14.6934 91.942C16.8116 99.2264 24.7364 102.626 32.7708 101.048C43.459 98.9472 45.3459 91.4078 43.1547 83.7106C41.0487 76.3533 35.6681 71.1934 25.0773 74.605C17.2985 77.1181 12.5752 84.6454 14.6934 91.942Z" fill="white"/>
<path d="M35.266 102.334C34.5964 102.528 33.9026 102.686 33.1722 102.832C23.7622 104.69 15.2773 100.319 12.9887 92.4516C10.6271 84.3295 15.7156 75.7338 24.5656 72.8807C29.7271 71.2175 34.1338 71.3267 37.6885 73.2207C41.2431 75.1146 43.6047 78.4898 44.9925 83.2125C46.4411 88.2995 46.1003 92.8037 43.9821 96.2517C41.9607 99.3135 38.8427 101.489 35.266 102.334ZM26.4281 76.1102L25.6856 76.3409C18.7224 78.5869 14.7295 85.2157 16.4946 91.4318C18.2476 97.5022 25.016 100.744 32.4661 99.2626C36.4954 98.4613 39.3196 96.8344 40.8291 94.4063C42.8134 91.1769 42.2534 87.1218 41.4378 84.2688C40.3544 80.4566 38.504 77.8463 35.9598 76.4865C33.4156 75.1268 30.2262 75.0054 26.3794 76.1102H26.4281Z" fill="#AAAAAA"/>
<path d="M148.904 53.1279C151.022 60.4123 146.153 67.5147 138.52 70.4649C128.356 74.3863 122.695 69.0323 120.455 61.3593C118.276 54.0141 120.054 46.7904 130.827 44.0223C138.74 41.9948 146.786 45.8313 148.904 53.1279Z" fill="white"/>
<path d="M136.974 72.274C133.649 73.4079 130.015 73.2387 126.81 71.8005C123.328 70.1008 120.723 66.6043 119.287 61.6994C117.935 57.1466 118.191 53.0431 120.005 49.8501C121.819 46.657 125.446 44.156 130.535 42.8448C139.214 40.6231 147.809 44.9937 150.012 52.7881C152.215 60.3518 147.577 68.2554 138.898 71.5942C138.289 71.9098 137.62 72.0798 136.974 72.274ZM130.364 45.4065C126.359 46.6206 123.596 48.4539 122.123 51.0398C120.65 53.6258 120.443 57.0495 121.612 61.0195C122.488 63.9698 124.29 67.8548 127.881 69.6152C130.644 70.975 134.077 70.8293 138.082 69.336C145.508 66.4586 149.574 59.7812 147.736 53.468C145.837 46.9363 138.545 43.3062 131.131 45.2001L130.364 45.4065Z" fill="#AAAAAA"/>
<path d="M168.747 59.004C166.103 58.2996 163.286 58.6712 160.917 60.0372C158.547 61.4032 156.819 63.6517 156.111 66.2885C153.767 73.2577 149.779 79.5638 144.483 84.6764C139.188 89.7891 132.738 93.559 125.678 95.6691C125.398 95.7541 125.142 95.8633 124.874 95.9726C133.931 85.3373 137.376 72.4802 133.055 60.2909C126.311 36.8957 99.6755 24.8399 70.8978 34.2247C43.386 43.1967 26.2337 66.8591 32.3691 89.4045C36.4472 104.35 49.6188 114.9 66.1745 117.802C66.0172 120.453 66.0865 123.114 66.3815 125.754C67.0267 130.452 142.696 126.24 142.696 126.24C142.331 122.597 140.834 116.053 138.813 112.8C147.626 109.003 155.518 103.363 161.955 96.2597C168.393 89.1568 173.224 80.7575 176.124 71.6304C176.815 68.9808 176.427 66.1662 175.045 63.8007C173.663 61.4352 171.399 59.7109 168.747 59.004ZM85.5545 117.741C85.8345 117.741 86.1022 117.656 86.37 117.595L85.8466 117.777L85.5545 117.741Z" fill="black"/>
<path d="M118.276 64.6255C123.778 81.064 110.972 97.5269 91.0443 103.537C70.3496 109.777 51.5783 101.206 47.2202 85.1919C42.57 68.3769 54.6583 51.6106 74.44 46.3415C94.7451 40.7567 113.005 48.8425 118.276 64.6255Z" fill="white"/>
<path d="M90.8129 104.835C79.6864 108.053 68.3775 107.179 59.6735 102.407C56.3698 100.648 53.4555 98.2421 51.1046 95.3343C48.7538 92.4266 47.0145 89.0761 45.9907 85.4831C44.9647 81.7833 44.6978 77.915 45.2061 74.11C45.7144 70.3049 46.9873 66.6412 48.9488 63.3384C53.8911 54.7063 63.0333 48.0531 74.0745 45.1272C94.7692 39.5546 113.845 47.5554 119.42 64.261C120.541 67.6061 120.963 71.1443 120.661 74.6582C120.36 78.1721 119.341 81.5873 117.667 84.6939C112.932 93.7995 103.364 101.108 91.3972 104.726L90.8129 104.835ZM73.8919 47.6403C63.8611 50.542 55.6319 56.6609 51.0547 64.5281C49.2548 67.555 48.0866 70.9133 47.6201 74.4015C47.1536 77.8897 47.3985 81.436 48.3401 84.8275C49.272 88.1062 50.8588 91.1632 53.0051 93.8149C55.1514 96.4666 57.813 98.6583 60.8299 100.258C69.1078 104.811 79.9543 105.6 90.6668 102.347C102.012 98.9108 111.045 92.0512 115.476 83.5163C116.999 80.6995 117.928 77.6018 118.207 74.4137C118.485 71.2256 118.107 68.0143 117.095 64.9773C111.934 49.5707 94.0997 42.177 74.6832 47.4097L73.8919 47.6403Z" fill="#AAAAAA"/>
<path d="M75.5335 73.5184C77.0186 72.4427 77.1303 70.071 75.7831 68.221C74.4359 66.371 72.1398 65.7432 70.6548 66.8189C69.1697 67.8946 69.058 70.2663 70.4052 72.1164C71.7524 73.9664 74.0484 74.5941 75.5335 73.5184Z" fill="#050707"/>
<path d="M92.8045 68.4134C94.2896 67.3378 94.4013 64.966 93.0541 63.116C91.7069 61.266 89.4108 60.6382 87.9258 61.7139C86.4407 62.7896 86.329 65.1614 87.6762 67.0114C89.0234 68.8614 91.3194 69.4891 92.8045 68.4134Z" fill="#050707"/>
<path d="M81.8536 94.2973C78.4327 95.3412 74.7844 95.3917 71.3358 94.443C66.9777 93.2289 61.4266 89.4531 59.7224 79.0606C59.6484 78.5846 59.7653 78.0986 60.0478 77.7078C60.3303 77.3171 60.7556 77.0529 61.2318 76.9724C61.7096 76.8954 62.1986 77.0107 62.5912 77.2929C62.9839 77.5752 63.2481 78.0014 63.3258 78.4779C64.4335 85.216 67.562 89.5381 72.3705 90.9586C78.092 92.634 84.5438 89.9509 86.8202 87.4499L87.2463 86.9643C84.9831 86.1217 82.9371 84.7861 81.2571 83.0549C80.4753 82.2766 79.8638 81.3449 79.4615 80.3189C79.0592 79.2928 78.8747 78.1946 78.9197 77.0938C79.0171 75.4427 79.8815 71.5819 85.6516 71.2056H86.0533C91.3487 72.0554 92.6635 77.4702 92.8339 78.2472C93.2747 80.2548 93.2119 82.3399 92.6513 84.3176H92.98C103.352 85.5317 106.298 78.7328 106.371 78.66C106.461 78.4397 106.595 78.2394 106.763 78.0706C106.932 77.9018 107.132 77.7679 107.353 77.6765C107.573 77.5852 107.81 77.5381 108.049 77.5382C108.287 77.5382 108.524 77.5852 108.744 77.6766C108.974 77.7654 109.183 77.8999 109.359 78.0718C109.534 78.2438 109.673 78.4496 109.766 78.6768C109.86 78.904 109.906 79.1477 109.902 79.3932C109.898 79.6387 109.844 79.8808 109.743 80.1047C109.584 80.4932 105.701 89.5381 92.7 88.0084C92.1644 88.0084 91.6409 88.0084 91.1418 87.8991C90.6812 88.6217 90.1599 89.304 89.5836 89.9388C87.4384 92.0473 84.7712 93.5512 81.8536 94.2973ZM84.4099 75.0785C83.8845 75.1684 83.4089 75.4433 83.0694 75.8532C82.7299 76.2631 82.549 76.7808 82.5596 77.3124C82.5459 77.911 82.6568 78.5059 82.8851 79.0596C83.1135 79.6134 83.4544 80.1139 83.8864 80.5297C85.3052 82.0072 87.0709 83.1087 89.0237 83.7348C89.5294 82.2662 89.622 80.6874 89.2915 79.1699V78.9999C89.2915 78.8542 88.561 75.4548 85.7124 74.8599C85.2712 74.8818 84.8341 74.9552 84.4099 75.0785Z" fill="#EE7167"/>
<path d="M92.481 26.722L113.638 0.777191C113.905 0.445997 114.266 0.203657 114.674 0.0824732C115.082 -0.0387109 115.517 -0.0329822 115.922 0.0989052C116.327 0.230793 116.681 0.482558 116.939 0.820652C117.196 1.15875 117.344 1.56711 117.363 1.99127L119.469 35.9854C119.469 35.9854 109.524 27.3776 92.481 26.722Z" fill="#EE7167"/>
<path d="M173.717 29.9299L166.362 33.333L171.096 43.5091L178.451 40.106L173.717 29.9299Z" fill="#4285F4"/>
<path d="M7.37481 55.8176L0.0205078 59.2207L4.75461 69.3968L12.1089 65.9937L7.37481 55.8176Z" fill="#E5A0C0"/>
<path d="M184.054 102.898L178.918 96.6411L163.592 109.152L168.727 115.409L184.054 102.898Z" fill="#FBBC05"/>
<path d="M43.1505 33.7823L35.811 30.3472L28.7776 45.2945L36.1171 48.7296L43.1505 33.7823Z" fill="#FBBC05"/>
<path d="M56.5287 3.49453L49.9688 8.24609L56.5787 17.3229L63.1386 12.5713L56.5287 3.49453Z" fill="#EE7167"/>
<path d="M66.3447 125.657L142.428 124.443L143.645 128.692H66.9534L66.3447 125.657Z" fill="black"/>
</g>
<defs>
<clipPath id="clip0_77_5221">
<rect width="184" height="128" fill="white"/>
</clipPath>
</defs>
</svg>
