<svg width="259" height="132" viewBox="0 0 259 132" fill="none" xmlns="http://www.w3.org/2000/svg">
<g clip-path="url(#clip0_407_1760)">
<path d="M131.336 20.791C133.434 27.8613 128.839 34.7843 121.516 37.625C111.758 41.5389 106.261 36.4045 103.973 28.9975C101.686 21.5906 103.449 14.8569 113.815 12.1635C121.432 10.1013 129.217 13.7417 131.336 20.791Z" fill="white"/>
<path d="M120.026 39.4752C116.837 40.6268 113.329 40.5063 110.226 39.1385C108.39 38.1232 106.786 36.7337 105.518 35.0594C104.249 33.385 103.344 31.463 102.861 29.4169C102.179 27.5586 101.878 25.5815 101.975 23.6039C102.073 21.6262 102.567 19.6885 103.428 17.9066C104.554 16.1283 106.029 14.5991 107.765 13.4123C109.5 12.2256 111.459 11.4063 113.521 11.0046C121.914 8.77413 130.308 12.9195 132.406 20.4527C134.505 27.986 130.182 35.4771 121.914 38.8019C121.297 39.0597 120.667 39.2845 120.026 39.4752ZM113.374 13.5087C110.123 14.2472 107.291 16.234 105.484 19.0429C104.764 20.5447 104.36 22.1785 104.295 23.8434C104.23 25.5083 104.506 27.1689 105.107 28.7224C105.515 30.4482 106.269 32.0728 107.322 33.4979C108.376 34.9229 109.706 36.1189 111.234 37.0132C112.809 37.6457 114.501 37.9371 116.197 37.8682C117.893 37.7993 119.555 37.3717 121.075 36.6134C128.209 33.7516 132.049 27.2495 130.224 21.1261C128.398 15.0027 121.243 11.3624 114.129 13.2983L113.374 13.5087Z" fill="#AAAAAA"/>
<path d="M2.28744 59.8457C4.38579 66.895 12.0867 70.0935 19.8297 68.4943C30.1116 66.39 31.8533 59.0041 29.6501 51.6602C27.4468 44.3164 22.3056 39.5818 12.1286 43.0117C4.63747 45.4526 0.1681 52.7965 2.28744 59.8457Z" fill="white"/>
<path d="M22.2007 69.6926C21.5111 69.9054 20.8107 70.081 20.1023 70.2186C11.0374 72.1124 2.81198 67.9671 0.524774 60.3497C-1.76243 52.7323 2.97979 44.1048 11.4781 41.243C13.4796 40.416 15.6281 40.0063 17.7927 40.0389C19.9572 40.0715 22.0924 40.5456 24.0683 41.4324C25.8478 42.4687 27.398 43.8577 28.6246 45.5147C29.8512 47.1716 30.7286 49.0618 31.2027 51.0699C31.9454 53.1174 32.2543 55.2975 32.1097 57.4714C31.9652 59.6452 31.3704 61.765 30.3633 63.6955C28.4957 66.6569 25.5794 68.7995 22.2007 69.6926ZM13.4085 44.4415L12.6951 44.6519C6.00133 46.9245 2.20325 53.3846 3.98686 59.3817C5.77046 65.3788 12.2334 68.3038 19.4517 66.8097C21.055 66.6054 22.5983 66.0676 23.9822 65.2305C25.3661 64.3935 26.5604 63.2757 27.4886 61.9489C28.2237 60.4238 28.6452 58.766 28.7281 57.0741C28.811 55.3823 28.5536 53.691 27.9712 52.101C27.6336 50.5506 26.9827 49.086 26.0588 47.7976C25.1349 46.5092 23.9575 45.4243 22.5993 44.6099C19.6857 43.3216 16.3828 43.2384 13.4085 44.3784V44.4415Z" fill="#AAAAAA"/>
<path d="M116.123 27.9654C123.74 49.0079 107.729 72.1547 79.5273 81.8975C52.2487 91.3035 25.5577 79.3934 19.3046 57.2566C13.1565 35.4565 29.4396 12.3307 55.8998 3.34553C83.5562 -6.10258 109.366 5.30251 116.123 27.9654Z" fill="black"/>
<path d="M101.917 32.1738C107.394 48.061 95.1814 64.1585 76.0653 70.1978C56.2149 76.5105 37.9802 68.346 33.5526 52.8586C28.8943 36.5927 40.3722 20.2006 59.4043 14.8348C78.9609 9.36371 96.6711 17.0232 101.917 32.1738Z" fill="white"/>
<path d="M75.8555 71.5664C65.944 74.8381 55.1485 74.0826 45.7862 69.4622C42.5807 67.7933 39.7444 65.4922 37.4476 62.6971C35.1507 59.902 33.4405 56.6704 32.4197 53.1963C31.3899 49.6203 31.0894 45.8728 31.5365 42.1778C31.9835 38.4828 33.1689 34.916 35.0216 31.6908C40.3792 22.763 49.0247 16.3079 59.0897 13.7205C78.9821 8.10209 97.4687 15.6984 103.029 31.796C104.144 35.0305 104.587 38.4595 104.331 41.8721C104.074 45.2846 103.124 48.6085 101.539 51.6391C97.0699 60.5191 87.921 67.7156 76.3591 71.3349L75.8555 71.5664ZM58.9429 16.2666C49.7987 18.7792 41.9693 24.7242 37.0779 32.8691C35.3809 35.8266 34.2929 39.0956 33.8784 42.4823C33.4639 45.8691 33.7313 49.3048 34.6648 52.5861C35.6043 55.7594 37.1718 58.7103 39.2736 61.2628C41.3755 63.8152 43.9687 65.9168 46.8984 67.4421C51.351 69.6183 56.1891 70.8892 61.1337 71.1817C66.0784 71.4743 71.0319 70.7826 75.7087 69.1466C86.5992 65.6956 95.2653 58.9409 99.441 50.6081C100.881 47.8615 101.745 44.8482 101.98 41.7539C102.215 38.6597 101.815 35.55 100.805 32.6166C95.664 17.7185 78.3946 10.7534 59.7193 16.0351L58.9429 16.2666Z" fill="#AAAAAA"/>
<path d="M60.8194 41.4953C62.2427 40.4349 62.3264 38.1308 61.0064 36.349C59.6863 34.5672 57.4624 33.9825 56.0391 35.0428C54.6158 36.1032 54.532 38.4073 55.8521 40.1891C57.1721 41.9709 59.3961 42.5557 60.8194 41.4953Z" fill="#050707"/>
<path d="M77.4434 36.3566C78.8667 35.2962 78.9504 32.9921 77.6304 31.2104C76.3103 29.4286 74.0864 28.8438 72.6631 29.9042C71.2398 30.9646 71.156 33.2686 72.4761 35.0504C73.7961 36.8322 76.0201 37.417 77.4434 36.3566Z" fill="#050707"/>
<path d="M67.1056 61.4236C63.8132 62.4755 60.2897 62.563 56.9494 61.6761C52.7527 60.4766 47.3391 56.9415 45.5975 46.9463C45.5489 46.7138 45.5476 46.4739 45.5936 46.2409C45.6396 46.0079 45.7319 45.7866 45.8651 45.5902C45.9983 45.3938 46.1695 45.2263 46.3687 45.0977C46.5679 44.9692 46.7908 44.8822 47.0242 44.842C47.2562 44.7902 47.4964 44.7867 47.7299 44.8315C47.9634 44.8763 48.1852 44.9686 48.3818 45.1026C48.5783 45.2367 48.7457 45.4097 48.8731 45.6109C49.0005 45.8122 49.0853 46.0375 49.1225 46.273C50.2557 52.7962 53.3195 56.9626 57.9778 58.2882C60.4061 58.8898 62.9451 58.8799 65.3687 58.2594C67.7923 57.639 70.0253 56.4272 71.8689 54.732C72.0198 54.5806 72.1599 54.4189 72.2885 54.248C70.0948 53.4638 68.1073 52.1903 66.476 50.5235C65.7098 49.7817 65.1069 48.8875 64.7058 47.8982C64.3046 46.9088 64.1143 45.8464 64.1468 44.7789C64.1468 43.1797 65.028 39.413 70.5887 38.9922H70.9665C72.6059 39.3472 74.1056 40.1762 75.2803 41.3767C76.455 42.5771 77.2533 44.0965 77.5764 45.7469C78.064 47.6804 78.064 49.7053 77.5764 51.6388H77.8912C87.9003 52.754 90.6911 46.0836 90.7121 45.9994C90.7974 45.7841 90.9244 45.5879 91.0861 45.4223C91.2477 45.2568 91.4406 45.1251 91.6534 45.0351C91.8663 44.945 92.095 44.8982 92.3261 44.8976C92.5571 44.897 92.7859 44.9424 92.9992 45.0314C93.4331 45.2047 93.7805 45.5436 93.9654 45.9736C94.1503 46.4037 94.1575 46.8898 93.9854 47.3251C93.8385 47.6828 90.1875 56.4996 77.5974 55.1529C77.0938 55.1529 76.59 55.1529 76.1074 55.1529C75.6655 55.8586 75.1673 56.5271 74.6176 57.1519C72.5388 59.2229 69.9451 60.6978 67.1056 61.4236ZM69.3717 42.7588C68.8752 42.8395 68.424 43.0963 68.1005 43.4825C67.7769 43.8688 67.6027 44.3587 67.6092 44.8631C67.5999 45.4441 67.7106 46.0208 67.9345 46.5568C68.1584 47.0928 68.4906 47.5765 68.9102 47.9774C70.3014 49.3835 72.0166 50.4242 73.9043 51.0075C74.3839 49.583 74.4565 48.0524 74.114 46.5886V46.4202C74.114 46.294 73.3795 42.9903 70.6307 42.4432C70.2029 42.4796 69.7806 42.5643 69.3717 42.6957V42.7588Z" fill="#4285F4"/>
<path d="M127.622 67.6947C125.524 74.744 130.119 81.667 137.463 84.5287C147.221 88.4427 152.718 83.3082 154.985 75.8802C157.083 68.7889 155.509 61.7607 145.143 59.0462C137.568 57.005 129.72 60.6244 127.622 67.6947Z" fill="white"/>
<path d="M137.064 85.707C128.671 82.3823 124.348 74.6596 126.573 67.3579C128.797 60.0561 137.064 55.6582 145.458 57.9098C147.517 58.3117 149.472 59.1313 151.204 60.3181C152.936 61.5049 154.408 63.0341 155.53 64.8117C156.401 66.5907 156.9 68.5291 156.997 70.5083C157.094 72.4874 156.788 74.4657 156.096 76.322C155.617 78.3669 154.713 80.2875 153.444 81.9588C152.175 83.6302 150.569 85.0148 148.731 86.0226C145.632 87.3972 142.123 87.5253 138.932 86.3804C138.344 86.191 137.715 85.9595 137.064 85.707ZM144.891 60.1823C137.757 58.2675 130.686 61.7185 128.797 68.0312C126.909 74.344 130.895 80.6567 137.925 83.5185C139.446 84.2747 141.109 84.6994 142.805 84.7647C144.501 84.83 146.192 84.5344 147.766 83.8973C149.294 83.0091 150.626 81.8176 151.68 80.3957C152.733 78.9738 153.486 77.3514 153.893 75.6276C154.494 74.074 154.77 72.4134 154.705 70.7485C154.64 69.0836 154.235 67.4498 153.515 65.948C151.715 63.1295 148.881 61.1343 145.626 60.3928L144.891 60.1823Z" fill="#AAAAAA"/>
<path d="M256.713 106.749C254.614 113.798 246.913 116.997 239.191 115.376C228.888 113.272 227.147 105.907 229.35 98.5424C231.448 91.43 236.694 86.485 246.871 89.8939C254.362 92.3348 258.832 99.6787 256.713 106.749Z" fill="white"/>
<path d="M228.49 110.6C227.481 108.67 226.888 106.549 226.747 104.374C226.606 102.2 226.921 100.02 227.672 97.9747C228.142 95.9703 229.015 94.0833 230.238 92.4297C231.461 90.776 233.008 89.3905 234.785 88.3583C236.761 87.4714 238.896 86.9972 241.061 86.9647C243.225 86.9321 245.374 87.3418 247.375 88.1688C255.874 91.0306 260.7 99.4266 258.329 107.276C255.958 115.124 247.837 119.017 238.772 117.144C238.059 116.997 237.387 116.808 236.674 116.618C233.285 115.723 230.36 113.572 228.49 110.6ZM236.401 91.4725C235.048 92.291 233.876 93.3775 232.956 94.6654C232.036 95.9534 231.388 97.4159 231.05 98.9637C230.462 100.549 230.202 102.238 230.285 103.927C230.368 105.616 230.792 107.271 231.533 108.791C232.453 110.12 233.642 111.241 235.023 112.078C236.405 112.916 237.947 113.452 239.548 113.651C246.767 115.166 253.272 112.052 255.034 106.223C256.797 100.395 252.936 93.7451 246.326 91.4936L245.592 91.2621C242.62 90.1155 239.317 90.1911 236.401 91.4725Z" fill="#AAAAAA"/>
<path d="M142.898 74.8266C135.26 95.8692 151.291 119.016 179.472 128.738C206.751 138.165 233.442 126.234 239.695 104.118C245.948 82.0021 229.56 59.192 203.121 50.1858C175.443 40.8008 149.634 52.2058 142.898 74.8266Z" fill="black"/>
<path d="M156.999 79.1193C151.522 95.0274 163.756 111.125 182.872 117.164C202.701 123.477 220.957 115.291 225.384 99.8251C230.022 83.5592 218.544 67.1671 199.533 61.7802C180.081 56.2671 162.329 63.9265 156.999 79.1193Z" fill="white"/>
<path d="M182.599 118.281C171.1 114.641 161.93 107.465 157.419 98.564C155.838 95.5355 154.892 92.2145 154.639 88.8055C154.386 85.3964 154.833 81.9716 155.95 78.742C161.49 62.6444 179.976 55.027 199.889 60.6664C209.95 63.2391 218.592 69.6895 223.937 78.6157C225.789 81.8451 226.974 85.4153 227.421 89.1136C227.868 92.812 227.568 96.5626 226.539 100.142C225.514 103.615 223.803 106.845 221.506 109.64C219.21 112.434 216.375 114.736 213.172 116.408C203.821 121.041 193.026 121.797 183.124 118.512L182.599 118.281ZM199.386 62.9179C180.71 57.6573 163.441 64.6224 158.3 79.5205C157.29 82.4539 156.891 85.5636 157.125 88.6578C157.36 91.7521 158.224 94.7653 159.664 97.5119C163.861 105.929 172.506 112.578 183.396 116.029C188.071 117.676 193.026 118.373 197.972 118.08C202.919 117.788 207.758 116.511 212.207 114.325C215.125 112.815 217.711 110.733 219.812 108.203C221.913 105.673 223.487 102.746 224.44 99.5952C225.38 96.3147 225.65 92.878 225.236 89.4903C224.821 86.1027 223.73 82.8336 222.027 79.8783C217.146 71.7282 209.324 65.7752 200.183 63.2546L199.386 62.9179Z" fill="#AAAAAA"/>
<path d="M203.087 86.6762C204.407 84.8945 204.323 82.5906 202.9 81.5302C201.477 80.4698 199.253 81.0544 197.933 82.8362C196.613 84.618 196.696 86.9221 198.12 87.9825C199.543 89.0429 201.767 88.458 203.087 86.6762Z" fill="#050707"/>
<path d="M186.464 81.5473C187.784 79.7655 187.701 77.4615 186.277 76.4011C184.854 75.3407 182.63 75.9255 181.31 77.7073C179.99 79.4891 180.074 81.7932 181.497 82.8536C182.92 83.914 185.144 83.3291 186.464 81.5473Z" fill="#050707"/>
<path d="M184.55 103.972C184.001 103.36 183.509 102.698 183.082 101.994H181.571C168.981 103.341 165.351 94.5242 165.183 94.1454C165.011 93.7101 165.018 93.224 165.203 92.794C165.388 92.3639 165.735 92.025 166.169 91.8517C166.603 91.6791 167.088 91.6863 167.516 91.8717C167.945 92.0572 168.283 92.4056 168.456 92.8407C168.456 92.8407 171.268 99.5744 181.277 98.4591H181.592C181.114 96.5244 181.114 94.5019 181.592 92.5672C181.907 90.9134 182.703 89.39 183.879 88.1882C185.055 86.9864 186.559 86.1599 188.202 85.8125H188.6C194.161 86.2544 194.895 90.021 195.021 91.5992C195.055 92.6781 194.863 93.752 194.458 94.7522C194.053 95.7523 193.445 96.6566 192.671 97.407C191.026 99.0572 189.043 100.328 186.859 101.131L187.257 101.615C189.106 103.302 191.34 104.507 193.763 105.123C196.185 105.74 198.722 105.749 201.149 105.151C205.807 103.825 208.87 99.6796 210.004 93.1564C210.044 92.9223 210.13 92.6987 210.258 92.4989C210.387 92.2992 210.554 92.1274 210.75 91.9939C210.946 91.8603 211.166 91.7677 211.398 91.7216C211.631 91.6755 211.87 91.6768 212.102 91.7255C212.337 91.7628 212.561 91.8481 212.762 91.9758C212.963 92.1036 213.135 92.2712 213.269 92.4683C213.403 92.6654 213.495 92.8879 213.539 93.122C213.584 93.3562 213.58 93.597 213.529 93.8297C211.787 103.867 206.394 107.423 202.177 108.56C198.834 109.426 195.316 109.338 192.02 108.307C189.193 107.547 186.616 106.052 184.55 103.972ZM188.432 89.4318C185.663 89.9789 184.949 93.2616 184.928 93.4089V93.5772C184.611 95.0432 184.683 96.567 185.138 97.9962C187.031 97.4149 188.749 96.3657 190.132 94.945C190.553 94.5483 190.887 94.0689 191.115 93.5366C191.342 93.0044 191.458 92.4308 191.454 91.8517C191.486 91.3265 191.321 90.8083 190.991 90.3993C190.66 89.9903 190.189 89.7202 189.67 89.6423C189.278 89.5409 188.878 89.4705 188.474 89.4318H188.432Z" fill="#EE7167"/>
<path d="M174.499 101.614C174.499 101.614 177.08 117.501 191.894 108.263L183.207 99.9727L174.499 101.614Z" fill="#EE7167"/>
<path d="M36.043 92.3262C36.221 92.5374 36.5364 92.5643 36.7476 92.3863C36.9587 92.2084 36.9856 91.8929 36.8077 91.6818L36.043 92.3262ZM38.826 93.8996C38.6332 93.7019 38.3166 93.698 38.1189 93.8908C37.9213 94.0836 37.9174 94.4002 38.1102 94.5979L38.826 93.8996ZM40.3278 96.7391C40.5318 96.9252 40.848 96.9108 41.0342 96.7068C41.2203 96.5029 41.2059 96.1866 41.002 96.0005L40.3278 96.7391ZM43.2802 97.9776C43.0674 97.8016 42.7522 97.8315 42.5763 98.0443C42.4003 98.2571 42.4302 98.5723 42.643 98.7483L43.2802 97.9776ZM45.0571 100.656C45.2774 100.823 45.5909 100.779 45.7575 100.559C45.9241 100.339 45.8805 100.025 45.6603 99.8584L45.0571 100.656ZM48.1161 101.64C47.8895 101.482 47.5778 101.538 47.4201 101.764C47.2623 101.991 47.3181 102.303 47.5448 102.46L48.1161 101.64ZM50.0873 104.162C50.3195 104.311 50.6289 104.244 50.7784 104.012C50.9278 103.78 50.8607 103.471 50.6285 103.321L50.0873 104.162ZM53.2025 104.916C52.9654 104.775 52.6584 104.852 52.5169 105.089C52.3755 105.326 52.453 105.633 52.6901 105.775L53.2025 104.916ZM55.3457 107.301C55.5872 107.435 55.8915 107.348 56.0253 107.106C56.1591 106.865 56.0717 106.56 55.8301 106.427L55.3457 107.301ZM58.5055 107.855C58.2599 107.728 57.9585 107.825 57.8322 108.071C57.7058 108.316 57.8025 108.618 58.0481 108.744L58.5055 107.855ZM60.7929 110.105C61.0421 110.224 61.3406 110.118 61.4596 109.869C61.5786 109.62 61.4732 109.322 61.224 109.203L60.7929 110.105ZM63.9821 110.472C63.7296 110.36 63.4342 110.474 63.3223 110.727C63.2104 110.979 63.3242 111.275 63.5767 111.387L63.9821 110.472ZM66.3966 112.591C66.652 112.696 66.9442 112.574 67.0492 112.319C67.1542 112.063 67.0323 111.771 66.7769 111.666L66.3966 112.591ZM69.5981 112.782C69.34 112.684 69.0512 112.814 68.953 113.072C68.8548 113.33 68.9844 113.619 69.2425 113.717L69.5981 112.782ZM72.1103 114.766C72.3708 114.858 72.6562 114.721 72.7478 114.46C72.8394 114.2 72.7024 113.914 72.4419 113.823L72.1103 114.766ZM75.314 114.792C75.0513 114.707 74.7694 114.851 74.6843 115.114C74.5993 115.376 74.7433 115.658 75.0061 115.743L75.314 114.792ZM77.9289 116.65C78.1936 116.729 78.4719 116.578 78.5506 116.313C78.6292 116.048 78.4783 115.77 78.2136 115.691L77.9289 116.65ZM81.14 116.523C80.8736 116.451 80.5989 116.608 80.5265 116.875C80.4542 117.141 80.6116 117.416 80.8781 117.488L81.14 116.523ZM83.8432 118.256C84.1113 118.322 84.3823 118.158 84.4485 117.89C84.5146 117.622 84.3509 117.351 84.0828 117.285L83.8432 118.256ZM87.0295 117.977C86.7599 117.917 86.4927 118.087 86.4326 118.356C86.3725 118.626 86.5422 118.893 86.8118 118.953L87.0295 117.977ZM89.8035 119.586C90.0743 119.64 90.3377 119.464 90.3919 119.194C90.4461 118.923 90.2705 118.659 89.9997 118.605L89.8035 119.586ZM92.9939 119.171C92.722 119.122 92.4625 119.304 92.4141 119.576C92.3658 119.847 92.547 120.107 92.8189 120.155L92.9939 119.171ZM95.8293 120.658C96.1021 120.701 96.3579 120.514 96.4005 120.241C96.4431 119.968 96.2565 119.713 95.9837 119.67L95.8293 120.658ZM98.9841 120.107C98.7104 120.07 98.4586 120.262 98.4215 120.536C98.3845 120.809 98.5763 121.061 98.8499 121.098L98.9841 120.107ZM101.894 121.479C102.168 121.511 102.416 121.314 102.447 121.04C102.479 120.765 102.282 120.517 102.008 120.486L101.894 121.479ZM105.024 120.803C104.75 120.776 104.505 120.978 104.479 121.253C104.453 121.528 104.655 121.772 104.93 121.798L105.024 120.803ZM107.971 122.058C108.246 122.079 108.486 121.873 108.507 121.598C108.528 121.322 108.322 121.082 108.047 121.061L107.971 122.058ZM111.093 121.264C110.817 121.248 110.581 121.459 110.565 121.734C110.549 122.01 110.76 122.246 111.036 122.262L111.093 121.264ZM114.075 122.408C114.351 122.419 114.584 122.204 114.594 121.928C114.605 121.652 114.39 121.419 114.114 121.409L114.075 122.408ZM117.154 121.5C116.878 121.494 116.649 121.713 116.643 121.989C116.638 122.265 116.857 122.494 117.133 122.499L117.154 121.5ZM120.194 122.537C120.47 122.538 120.695 122.315 120.696 122.038C120.697 121.762 120.474 121.538 120.198 121.537L120.194 122.537ZM123.227 121.521C122.951 121.525 122.73 121.752 122.734 122.028C122.738 122.304 122.965 122.525 123.241 122.521L123.227 121.521ZM126.315 122.454C126.591 122.445 126.808 122.215 126.799 121.939C126.791 121.663 126.56 121.446 126.284 121.454L126.315 122.454ZM129.303 121.338C129.027 121.351 128.814 121.585 128.827 121.861C128.84 122.137 129.074 122.35 129.349 122.337L129.303 121.338ZM132.411 122.17C132.687 122.152 132.896 121.915 132.879 121.639C132.862 121.364 132.624 121.154 132.349 121.172L132.411 122.17ZM135.372 120.959C135.097 120.98 134.891 121.221 134.913 121.496C134.934 121.771 135.175 121.977 135.45 121.956L135.372 120.959ZM138.499 121.694C138.774 121.668 138.976 121.424 138.95 121.149C138.924 120.874 138.68 120.672 138.405 120.698L138.499 121.694ZM141.428 120.392C141.153 120.422 140.955 120.669 140.985 120.943C141.015 121.218 141.261 121.416 141.536 121.386L141.428 120.392ZM144.552 18.0053C144.828 18.0119 145.058 17.7934 145.064 17.5174C145.071 17.2413 144.852 17.0122 144.576 17.0056L144.552 18.0053ZM147.698 17.1428C147.423 17.1256 147.185 17.3351 147.168 17.6107C147.151 17.8863 147.36 18.1237 147.636 18.1409L147.698 17.1428ZM150.71 18.3833C150.985 18.4092 151.229 18.2074 151.255 17.9325C151.281 17.6576 151.079 17.4137 150.804 17.3877L150.71 18.3833ZM153.913 17.7263C153.639 17.6926 153.39 17.8875 153.356 18.1615C153.322 18.4356 153.517 18.6851 153.791 18.7189L153.913 17.7263ZM156.853 19.1367C157.127 19.1776 157.381 18.9893 157.422 18.7162C157.463 18.4431 157.275 18.1886 157.001 18.1477L156.853 19.1367ZM160.09 18.6499C159.818 18.6022 159.559 18.784 159.511 19.056C159.464 19.328 159.645 19.5871 159.917 19.6349L160.09 18.6499ZM162.952 20.2055C163.223 20.2598 163.487 20.0844 163.541 19.8136C163.595 19.5429 163.42 19.2794 163.149 19.225L162.952 20.2055ZM166.2 19.8755C165.931 19.8147 165.663 19.9837 165.602 20.2531C165.542 20.5225 165.711 20.7901 165.98 20.851L166.2 19.8755ZM168.994 21.5702C169.262 21.6375 169.534 21.475 169.601 21.2072C169.669 20.9394 169.506 20.6677 169.238 20.6004L168.994 21.5702ZM172.256 21.3985C171.99 21.3246 171.715 21.4804 171.641 21.7465C171.567 22.0126 171.723 22.2882 171.989 22.362L172.256 21.3985ZM174.958 23.226C175.222 23.3064 175.502 23.1575 175.582 22.8933C175.663 22.6291 175.514 22.3498 175.25 22.2693L174.958 23.226ZM178.222 23.2157C177.96 23.1285 177.677 23.2703 177.59 23.5324C177.503 23.7944 177.644 24.0775 177.907 24.1646L178.222 23.2157ZM180.83 25.179C181.09 25.273 181.377 25.1386 181.471 24.8789C181.564 24.6193 181.43 24.3326 181.17 24.2387L180.83 25.179ZM184.092 25.3398C183.835 25.2389 183.544 25.3655 183.444 25.6226C183.343 25.8796 183.469 26.1698 183.726 26.2707L184.092 25.3398ZM186.591 27.4412C186.845 27.5492 187.139 27.4308 187.247 27.1766C187.355 26.9225 187.236 26.6289 186.982 26.5209L186.591 27.4412ZM189.838 27.7837C189.588 27.6684 189.291 27.7783 189.175 28.0292C189.06 28.2801 189.17 28.577 189.421 28.6923L189.838 27.7837ZM192.212 30.0261C192.459 30.1489 192.759 30.048 192.882 29.8006C193.005 29.5533 192.904 29.2532 192.657 29.1304L192.212 30.0261ZM195.432 30.5627C195.189 30.4323 194.885 30.5237 194.755 30.7671C194.624 31.0105 194.716 31.3135 194.959 31.444L195.432 30.5627ZM197.659 32.9485C197.898 33.0869 198.204 33.0053 198.342 32.7664C198.481 32.5274 198.399 32.2215 198.16 32.0831L197.659 32.9485ZM200.837 33.694C200.603 33.5475 200.295 33.6187 200.148 33.8528C200.002 34.0869 200.073 34.3954 200.307 34.5418L200.837 33.694ZM202.897 36.2258C203.126 36.3804 203.437 36.3202 203.592 36.0914C203.746 35.8626 203.686 35.5518 203.457 35.3972L202.897 36.2258ZM206.015 37.1946C205.792 37.0317 205.479 37.0803 205.316 37.3032C205.153 37.5261 205.202 37.839 205.424 38.0019L206.015 37.1946ZM207.882 39.8716C208.099 40.043 208.413 40.0065 208.585 39.79C208.756 39.5735 208.719 39.259 208.503 39.0876L207.882 39.8716ZM210.916 41.0772C210.706 40.8973 210.391 40.9212 210.211 41.1307C210.031 41.3402 210.055 41.6559 210.264 41.8358L210.916 41.0772ZM212.564 43.8948C212.765 44.0833 213.082 44.0724 213.27 43.8706C213.459 43.6688 213.448 43.3524 213.246 43.1639L212.564 43.8948ZM215.487 45.3475C215.293 45.1505 214.977 45.1478 214.78 45.3413C214.583 45.5349 214.58 45.8515 214.773 46.0484L215.487 45.3475ZM35.0749 91.1239C35.3752 91.5156 35.6979 91.9167 36.043 92.3262L36.8077 91.6818C36.472 91.2835 36.1589 90.8943 35.8685 90.5154L35.0749 91.1239ZM38.1102 94.5979C38.7916 95.2963 39.5308 96.0116 40.3278 96.7391L41.002 96.0005C40.2185 95.2854 39.4933 94.5836 38.826 93.8996L38.1102 94.5979ZM42.643 98.7483C43.4061 99.3792 44.2108 100.016 45.0571 100.656L45.6603 99.8584C44.8253 99.227 44.0319 98.5991 43.2802 97.9776L42.643 98.7483ZM47.5448 102.46C48.3598 103.028 49.2073 103.596 50.0873 104.162L50.6285 103.321C49.7586 102.761 48.9211 102.2 48.1161 101.64L47.5448 102.46ZM52.6901 105.775C53.5483 106.287 54.4334 106.796 55.3457 107.301L55.8301 106.427C54.9272 105.926 54.0514 105.423 53.2025 104.916L52.6901 105.775ZM58.0481 108.744C58.9398 109.203 59.8547 109.657 60.7929 110.105L61.224 109.203C60.2947 108.759 59.3885 108.309 58.5055 107.855L58.0481 108.744ZM63.5767 111.387C64.4963 111.794 65.4363 112.196 66.3966 112.591L66.7769 111.666C65.8249 111.275 64.8934 110.877 63.9821 110.472L63.5767 111.387ZM69.2425 113.717C70.1804 114.074 71.1364 114.424 72.1103 114.766L72.4419 113.823C71.476 113.483 70.5281 113.136 69.5981 112.782L69.2425 113.717ZM75.0061 115.743C75.9641 116.053 76.9384 116.356 77.9289 116.65L78.2136 115.691C77.2309 115.4 76.2643 115.099 75.314 114.792L75.0061 115.743ZM80.8781 117.488C81.8517 117.752 82.8401 118.008 83.8432 118.256L84.0828 117.285C83.0871 117.039 82.1062 116.785 81.14 116.523L80.8781 117.488ZM86.8118 118.953C87.7956 119.173 88.7928 119.384 89.8035 119.586L89.9997 118.605C88.9962 118.404 88.0061 118.195 87.0295 117.977L86.8118 118.953ZM92.8189 120.155C93.8101 120.332 94.8135 120.499 95.8293 120.658L95.9837 119.67C94.9748 119.512 93.9782 119.346 92.9939 119.171L92.8189 120.155ZM98.8499 121.098C99.853 121.234 100.868 121.361 101.894 121.479L102.008 120.486C100.988 120.368 99.9805 120.242 98.9841 120.107L98.8499 121.098ZM104.93 121.798C105.933 121.894 106.947 121.98 107.971 122.058L108.047 121.061C107.029 120.984 106.021 120.898 105.024 120.803L104.93 121.798ZM111.036 122.262C112.039 122.319 113.052 122.368 114.075 122.408L114.114 121.409C113.097 121.369 112.09 121.321 111.093 121.264L111.036 122.262ZM117.133 122.499C118.144 122.521 119.165 122.533 120.194 122.537L120.198 121.537C119.174 121.533 118.159 121.521 117.154 121.5L117.133 122.499ZM123.241 122.521C124.257 122.507 125.281 122.485 126.315 122.454L126.284 121.454C125.257 121.485 124.238 121.508 123.227 121.521L123.241 122.521ZM129.349 122.337C130.362 122.29 131.383 122.234 132.411 122.17L132.349 121.172C131.325 121.236 130.31 121.291 129.303 121.338L129.349 122.337ZM135.45 121.956C136.459 121.877 137.475 121.789 138.499 121.694L138.405 120.698C137.387 120.793 136.376 120.88 135.372 120.959L135.45 121.956ZM141.536 121.386C142.046 121.331 142.557 121.273 143.071 121.214L142.955 120.22C142.444 120.28 141.935 120.337 141.428 120.392L141.536 121.386ZM143.013 17.9863C143.504 17.9863 144.018 17.9925 144.552 18.0053L144.576 17.0056C144.034 16.9926 143.513 16.9863 143.013 16.9863V17.9863ZM147.636 18.1409C148.614 18.202 149.64 18.2822 150.71 18.3833L150.804 17.3877C149.724 17.2857 148.687 17.2046 147.698 17.1428L147.636 18.1409ZM153.791 18.7189C154.784 18.841 155.806 18.9799 156.853 19.1367L157.001 18.1477C155.945 17.9896 154.915 17.8495 153.913 17.7263L153.791 18.7189ZM159.917 19.6349C160.911 19.8092 161.924 19.9991 162.952 20.2055L163.149 19.225C162.112 19.017 161.092 18.8256 160.09 18.6499L159.917 19.6349ZM165.98 20.851C166.973 21.0753 167.979 21.3148 168.994 21.5702L169.238 20.6004C168.215 20.343 167.201 20.1016 166.2 19.8755L165.98 20.851ZM171.989 22.362C172.972 22.6349 173.962 22.9226 174.958 23.226L175.25 22.2693C174.245 21.9636 173.247 21.6735 172.256 21.3985L171.989 22.362ZM177.907 24.1646C178.878 24.4876 179.853 24.8255 180.83 25.179L181.17 24.2387C180.185 23.8821 179.201 23.5413 178.222 23.2157L177.907 24.1646ZM183.726 26.2707C184.681 26.6455 185.636 27.0355 186.591 27.4412L186.982 26.5209C186.019 26.1114 185.055 25.7179 184.092 25.3398L183.726 26.2707ZM189.421 28.6923C190.354 29.1212 191.285 29.5656 192.212 30.0261L192.657 29.1304C191.72 28.6654 190.78 28.2167 189.838 27.7837L189.421 28.6923ZM194.959 31.444C195.865 31.9294 196.765 32.4308 197.659 32.9485L198.16 32.0831C197.256 31.5598 196.346 31.0531 195.432 30.5627L194.959 31.444ZM200.307 34.5418C201.178 35.0865 202.042 35.6477 202.897 36.2258L203.457 35.3972C202.592 34.8124 201.718 34.2448 200.837 33.694L200.307 34.5418ZM205.424 38.0019C206.254 38.6081 207.073 39.2312 207.882 39.8716L208.503 39.0876C207.684 38.439 206.854 37.8082 206.015 37.1946L205.424 38.0019ZM210.264 41.8358C211.043 42.5046 211.81 43.1908 212.564 43.8948L213.246 43.1639C212.482 42.4503 211.705 41.7548 210.916 41.0772L210.264 41.8358ZM214.773 46.0484C215.134 46.4152 215.491 46.7864 215.844 47.1622L216.573 46.4771C216.214 46.0959 215.852 45.7194 215.487 45.3475L214.773 46.0484Z" fill="black"/>
<ellipse cx="203.822" cy="27.076" rx="3.37827" ry="3.38461" fill="black"/>
<ellipse cx="64.187" cy="110.564" rx="4.50435" ry="4.51282" fill="black"/>
</g>
<defs>
<clipPath id="clip0_407_1760">
<rect width="259" height="132" fill="white"/>
</clipPath>
</defs>
</svg>
