<svg xmlns="http://www.w3.org/2000/svg" width="20" height="18" viewBox="0 0 20 18" fill="none">
<path fill-rule="evenodd" clip-rule="evenodd" d="M18.2001 1.5H20V4H18.2001C17.745 4.89042 16.8187 5.5 15.75 5.5C14.6813 5.5 13.755 4.89042 13.2999 4H0V1.5H13.2999C13.755 0.609581 14.6813 0 15.75 0C16.8187 0 17.745 0.609581 18.2001 1.5ZM4.75 11.5C5.81867 11.5 6.74497 10.8904 7.20015 10H20V7.5H7.20015C6.74497 6.60958 5.81867 6 4.75 6C3.68133 6 2.75503 6.60958 2.29985 7.5H0V10H2.29985C2.75503 10.8904 3.68133 11.5 4.75 11.5ZM18.2001 16C17.745 16.8904 16.8187 17.5 15.75 17.5C14.6813 17.5 13.755 16.8904 13.2999 16H0V13.5H13.2999C13.755 12.6096 14.6813 12 15.75 12C16.8187 12 17.745 12.6096 18.2001 13.5H20V16H18.2001Z" fill="black"/>
</svg>