<svg xmlns="http://www.w3.org/2000/svg" width="10" height="13" viewBox="0 0 10 13" fill="none">
<mask id="path-1-inside-1_1111_6015" fill="white">
<path fill-rule="evenodd" clip-rule="evenodd" d="M2 0C0.895431 0 0 0.895429 0 2V12.9999L4.51381 8.02467L9.0278 13.0001V2C9.0278 0.895431 8.13237 0 7.0278 0H2Z"/>
</mask>
<path d="M0 12.9999H-0.7V14.8132L0.518429 13.4702L0 12.9999ZM4.51381 8.02467L5.03224 7.55432L4.51381 6.9829L3.99538 7.55432L4.51381 8.02467ZM9.0278 13.0001L8.50937 13.4704L9.7278 14.8134V13.0001H9.0278ZM0.7 2C0.7 1.28203 1.28203 0.7 2 0.7V-0.7C0.508832 -0.7 -0.7 0.508829 -0.7 2H0.7ZM0.7 12.9999V2H-0.7V12.9999H0.7ZM0.518429 13.4702L5.03224 8.49503L3.99538 7.55432L-0.518429 12.5295L0.518429 13.4702ZM3.99538 8.49503L8.50937 13.4704L9.54623 12.5297L5.03224 7.55432L3.99538 8.49503ZM8.3278 2V13.0001H9.7278V2H8.3278ZM7.0278 0.7C7.74577 0.7 8.3278 1.28203 8.3278 2H9.7278C9.7278 0.508832 8.51897 -0.7 7.0278 -0.7V0.7ZM2 0.7H7.0278V-0.7H2V0.7Z" fill="black" mask="url(#path-1-inside-1_1111_6015)"/>
</svg>