<svg width="14" height="20" viewBox="0 0 14 20" fill="none" xmlns="http://www.w3.org/2000/svg">
<mask id="path-1-inside-1_179_942" fill="white">
<path fill-rule="evenodd" clip-rule="evenodd" d="M3.80591 0.571289C2.14905 0.571289 0.805908 1.91444 0.805908 3.57129V19.4282L7.35345 12.2115L13.9012 19.4285V3.57129C13.9012 1.91443 12.5581 0.571289 10.9012 0.571289H3.80591Z"/>
</mask>
<path fill-rule="evenodd" clip-rule="evenodd" d="M3.80591 0.571289C2.14905 0.571289 0.805908 1.91444 0.805908 3.57129V19.4282L7.35345 12.2115L13.9012 19.4285V3.57129C13.9012 1.91443 12.5581 0.571289 10.9012 0.571289H3.80591Z" fill="#2563D7"/>
<path d="M0.805908 19.4282H-1.19409V24.6092L2.28713 20.7721L0.805908 19.4282ZM7.35345 12.2115L8.83468 10.8676L7.35345 9.23496L5.87223 10.8676L7.35345 12.2115ZM13.9012 19.4285L12.42 20.7723L15.9012 24.6094V19.4285H13.9012ZM2.80591 3.57129C2.80591 3.01901 3.25363 2.57129 3.80591 2.57129V-1.42871C1.04448 -1.42871 -1.19409 0.809871 -1.19409 3.57129H2.80591ZM2.80591 19.4282V3.57129H-1.19409V19.4282H2.80591ZM2.28713 20.7721L8.83468 13.5553L5.87223 10.8676L-0.675317 18.0844L2.28713 20.7721ZM5.87223 13.5553L12.42 20.7723L15.3824 18.0846L8.83468 10.8676L5.87223 13.5553ZM11.9012 3.57129V19.4285H15.9012V3.57129H11.9012ZM10.9012 2.57129C11.4535 2.57129 11.9012 3.019 11.9012 3.57129H15.9012C15.9012 0.809867 13.6626 -1.42871 10.9012 -1.42871V2.57129ZM3.80591 2.57129H10.9012V-1.42871H3.80591V2.57129Z" fill="#2563D7" mask="url(#path-1-inside-1_179_942)"/>
</svg>
