<svg width="19" height="19" viewBox="0 0 19 19" fill="none" xmlns="http://www.w3.org/2000/svg">
<mask id="path-1-inside-1_1312_6511" fill="white">
<path fill-rule="evenodd" clip-rule="evenodd" d="M5.80591 0C4.14905 0 2.80591 1.34315 2.80591 3V18.857L9.35345 11.6402L15.9012 18.8572V3C15.9012 1.34315 14.5581 0 12.9012 0H5.80591Z"/>
</mask>
<path d="M2.80591 18.857H0.805908V24.0379L4.28713 20.2008L2.80591 18.857ZM9.35345 11.6402L10.8347 10.2963L9.35345 8.66367L7.87223 10.2963L9.35345 11.6402ZM15.9012 18.8572L14.42 20.201L17.9012 24.0381V18.8572H15.9012ZM4.80591 3C4.80591 2.44772 5.25363 2 5.80591 2V-2C3.04448 -2 0.805908 0.238582 0.805908 3H4.80591ZM4.80591 18.857V3H0.805908V18.857H4.80591ZM4.28713 20.2008L10.8347 12.984L7.87223 10.2963L1.32468 17.5131L4.28713 20.2008ZM7.87223 12.984L14.42 20.201L17.3824 17.5133L10.8347 10.2963L7.87223 12.984ZM13.9012 3V18.8572H17.9012V3H13.9012ZM12.9012 2C13.4535 2 13.9012 2.44771 13.9012 3H17.9012C17.9012 0.238578 15.6626 -2 12.9012 -2V2ZM5.80591 2H12.9012V-2H5.80591V2Z" fill="#2563D7" mask="url(#path-1-inside-1_1312_6511)"/>
</svg>
