<svg xmlns="http://www.w3.org/2000/svg" width="150" height="50" viewBox="0 0 150 50" fill="none">
<path d="M72.1843 37.8945C69.0365 39.781 65.4378 40.7745 61.7719 40.7692C56.3869 40.7692 51.2224 38.6216 47.4146 34.7987C43.6068 30.9759 41.4676 25.791 41.4676 20.3846C41.4676 14.9783 43.6068 9.7934 47.4146 5.97054C51.2224 2.14769 56.3869 2.10782e-05 61.7719 2.10782e-05C65.4378 -0.00527699 69.0365 0.988279 72.1843 2.87477C69.1439 4.70208 66.6315 7.29473 64.8956 10.3962C63.8845 10.079 62.8312 9.91862 61.7719 9.92052C59.0124 9.92742 56.368 11.031 54.4168 12.9899C52.4655 14.9489 51.3663 17.6038 51.3594 20.3742C51.3594 23.149 52.4556 25.8107 54.4076 27.7753C56.3595 29.7399 59.0079 30.847 61.7719 30.8539C62.8307 30.8555 63.8838 30.6969 64.8956 30.3835C66.6345 33.48 69.1465 36.0685 72.1843 37.8945Z" fill="black"/>
<path d="M98.2938 37.8945C95.146 39.781 91.5473 40.7745 87.8813 40.7692C82.4963 40.7692 77.3318 38.6216 73.524 34.7987C69.7163 30.9759 67.5771 25.791 67.5771 20.3846C67.5771 14.9783 69.7163 9.7934 73.524 5.97054C77.3318 2.14769 82.4963 2.10782e-05 87.8813 2.10782e-05C91.5473 -0.00527699 95.146 0.988279 98.2938 2.87477C95.2534 4.70208 92.7345 7.28318 90.9986 10.3846C89.9875 10.0675 88.9406 9.91865 87.8813 9.92055C85.1174 9.92747 82.469 11.0346 80.517 12.9992C78.5651 14.9638 77.4689 17.6254 77.4689 20.4003C77.4758 23.1707 78.575 25.8256 80.5262 27.7845C82.4774 29.7435 85.1219 30.8471 87.8813 30.854C88.9402 30.8555 89.9933 30.6969 91.0051 30.3835C92.744 33.48 95.2559 36.0685 98.2938 37.8945Z" fill="black"/>
<path d="M98.2936 2.8413C95.2658 4.64091 92.764 7.19726 91.0367 10.2564C90.0301 9.94353 88.9813 9.78528 87.9267 9.78715C86.872 9.78528 85.8233 9.94353 84.8166 10.2564C83.0873 7.19739 80.5861 4.63982 77.5598 2.83614C80.6932 0.973566 84.2765 -0.00674321 87.9267 3.49122e-05C91.5774 -0.00596261 95.161 0.9762 98.2936 2.8413Z" fill="black"/>
<path d="M98.2936 37.8559C95.161 39.7686 91.5774 40.7758 87.9267 40.7696C84.2765 40.7766 80.6932 39.7713 77.5598 37.8612C80.5831 36.0098 83.0835 33.3896 84.8166 30.2568C85.8241 30.5735 86.8725 30.734 87.9267 30.7328C88.9809 30.734 90.0293 30.5735 91.0367 30.2568C92.7684 33.3893 95.2693 36.0081 98.2936 37.8559Z" fill="black"/>
<path d="M119.283 2.83613C116.219 4.63982 113.687 7.19739 111.937 10.2564C110.918 9.94353 109.856 9.78528 108.788 9.78715C107.721 9.78528 106.659 9.94353 105.64 10.2564C103.888 7.19928 101.356 4.64355 98.2934 2.84129C101.465 0.976434 105.092 -0.00571074 108.788 2.7396e-05C112.483 -0.00597444 116.111 0.97428 119.283 2.83613Z" fill="black"/>
<path d="M109.3 30.8498V40.8972H108.776C105.085 40.9031 101.333 39.7328 98.1656 37.8203C101.223 35.972 103.837 33.4523 105.589 30.3203C106.607 30.6374 107.71 30.862 108.776 30.8604C108.958 30.878 109.133 30.8745 109.3 30.8498Z" fill="black"/>
<path d="M105.717 30.3679C103.975 33.4923 101.461 36.1046 98.4216 37.9485C95.3813 36.1052 92.7392 33.381 90.9984 30.2562C92.9993 29.6187 94.8928 28.4987 96.1936 26.8328C97.4945 25.1668 98.2708 23.1435 98.4216 21.0254C98.571 23.1439 99.3467 25.168 100.648 26.8342C101.949 28.5004 103.715 29.7317 105.717 30.3679Z" fill="black"/>
<path d="M105.717 10.2562C103.716 10.8921 101.95 12.2726 100.649 13.9378C99.3482 15.6029 98.572 17.6258 98.4216 19.7434C98.2711 17.6258 97.495 15.6029 96.194 13.9378C94.8929 12.2726 92.9993 11.0203 90.9984 10.3844C92.7348 7.25483 95.2498 4.66137 98.2936 2.82031C101.335 4.66407 103.978 7.12869 105.717 10.2562Z" fill="black"/>
<path d="M126.578 30.3844C124.847 33.4725 122.299 36.1208 119.283 37.9485C119.269 37.9541 119.165 38.0651 119.155 38.0767C116.166 39.8769 112.782 40.7828 109.3 40.8672V30.8186C110.182 30.7804 111.055 30.6272 111.898 30.363C113.903 29.7275 115.671 28.4956 116.969 26.8292C118.267 25.1628 119.035 23.1396 119.172 21.0254C119.278 22.6887 119.776 24.3024 120.626 25.7325C121.475 27.1625 122.651 28.3676 124.055 29.2475C124.802 29.7249 125.735 30.1178 126.578 30.3844Z" fill="black"/>
<path d="M126.45 10.3755C124.439 11.0132 122.666 12.249 121.364 13.9208C120.062 15.5926 119.292 17.6223 119.155 19.7434C119.021 17.6219 118.252 15.5913 116.949 13.9198C115.647 12.2482 113.872 11.0142 111.86 10.3808C113.598 7.26397 116.113 4.65808 119.155 2.82031C122.195 4.65911 124.708 7.26254 126.45 10.3755Z" fill="black"/>
<path d="M150 20.3846C150 25.791 147.861 30.9759 144.053 34.7987C140.245 38.6216 135.081 40.7692 129.696 40.7692C126.041 40.7754 122.453 39.7854 119.314 37.9049V37.8683C122.337 36.0442 124.837 33.4656 126.572 30.3835C127.583 30.6975 128.637 30.8561 129.696 30.854C131.067 30.8574 132.426 30.5887 133.694 30.0633C134.962 29.5378 136.114 28.766 137.084 27.7922C138.054 26.8184 138.823 25.6617 139.346 24.3887C139.87 23.1157 140.137 21.7514 140.134 20.3742C140.134 18.9992 139.864 17.6377 139.339 16.3677C138.814 15.0977 138.045 13.9442 137.075 12.9731C136.105 12.0021 134.955 11.2326 133.688 10.7088C132.422 10.185 131.065 9.91713 129.696 9.92057C128.637 9.91899 127.462 10.0712 126.45 10.3846C124.71 7.28772 122.192 4.6498 119.155 2.82051C122.302 0.931831 126.029 -0.00761222 129.696 4.64482e-05C135.081 4.64482e-05 140.245 2.14771 144.053 5.97056C147.861 9.79341 150 14.9783 150 20.3846Z" fill="black"/>
<path d="M24.9543 20.2957V20.3846C24.9612 23.155 26.056 25.8099 27.9993 27.7689C29.9426 29.7278 32.5762 30.8314 35.3245 30.8383V40.7692C29.9613 40.7692 24.8178 38.6216 21.0255 34.7987C17.2332 30.9759 15.1027 25.791 15.1027 20.3846V0H24.9543V10.3909H35.3245V20.3219L24.9543 20.2957Z" fill="black"/>
<path d="M11.2628 5.63842C11.2635 6.3793 11.1183 7.11306 10.8356 7.79775C10.5529 8.48244 10.1382 9.10464 9.61525 9.62877C9.09226 10.1529 8.47122 10.5687 7.78765 10.8524C7.10408 11.136 6.37139 11.2821 5.63142 11.2821C4.1374 11.2807 2.705 10.6855 1.64906 9.62724C0.593117 8.56901 -6.39256e-07 7.1343 0 5.63842C0 4.14301 0.593286 2.70888 1.64938 1.65147C2.70547 0.59406 4.13788 2.42194e-06 5.63142 2.42194e-06C6.37114 -0.000684311 7.10373 0.144676 7.78727 0.42779C8.47081 0.710904 9.09187 1.1262 9.61493 1.64991C10.138 2.17362 10.5527 2.79549 10.8355 3.47988C11.1183 4.16428 11.2635 4.89778 11.2628 5.63842Z" fill="black"/>
<path d="M119.283 37.9482L109.3 49.9995V40.8301C112.806 40.7456 116.231 39.7546 119.241 37.9535L119.283 37.9482Z" fill="black"/>
<path d="M10.7507 15.8975H0.51181V40.7693H10.7507V15.8975Z" fill="black"/>
</svg>