<svg width="160" height="112" viewBox="0 0 160 112" fill="none" xmlns="http://www.w3.org/2000/svg">
<g clip-path="url(#clip0_76_1279)">
<path d="M12.7767 79.9491C14.6186 86.2834 21.5097 89.2394 28.4962 87.867C37.7902 86.0406 39.431 79.4846 37.5256 72.7913C35.6943 66.3937 31.0156 61.9069 21.8062 64.8734C15.042 67.0588 10.9348 73.6042 12.7767 79.9491Z" fill="white"/>
<path d="M30.6662 88.9869C30.084 89.1558 29.4807 89.2931 28.8455 89.4198C20.6629 91.035 13.2847 87.2344 11.2947 80.3934C9.24107 73.3306 13.6658 65.8561 21.3615 63.3752C25.8498 61.9289 29.6817 62.0239 32.7727 63.6708C35.8637 65.3177 37.9173 68.2526 39.124 72.3593C40.3837 76.7828 40.0873 80.6995 38.2455 83.6978C36.4877 86.3602 33.7764 88.2522 30.6662 88.9869ZM22.9811 66.1834L22.3354 66.384C16.2805 68.3371 12.8084 74.1013 14.3433 79.5066C15.8676 84.7852 21.7531 87.6039 28.2315 86.3159C31.7353 85.6192 34.1911 84.2045 35.5037 82.0931C37.2292 79.2849 36.7422 75.7588 36.033 73.2778C35.0909 69.9629 33.4819 67.6931 31.2695 66.5107C29.0571 65.3283 26.2837 65.2227 22.9387 66.1834H22.9811Z" fill="#AAAAAA"/>
<path d="M129.482 46.198C131.324 52.5323 127.09 58.7083 120.452 61.2737C111.614 64.6836 106.691 60.0279 104.744 53.3558C102.849 46.9687 104.394 40.6872 113.763 38.2801C120.643 36.5171 127.64 39.8532 129.482 46.198Z" fill="white"/>
<path d="M119.108 62.8469C116.216 63.8329 113.056 63.6857 110.269 62.4352C107.242 60.9572 104.976 57.9167 103.727 53.6516C102.552 49.6926 102.775 46.1243 104.352 43.3478C105.929 40.5712 109.084 38.3965 113.508 37.2563C121.056 35.3243 128.529 39.1249 130.445 45.9026C132.361 52.4797 128.328 59.3525 120.781 62.2557C120.251 62.5302 119.669 62.678 119.108 62.8469ZM113.36 39.4839C109.878 40.5396 107.475 42.1337 106.194 44.3824C104.913 46.6311 104.733 49.6082 105.749 53.0604C106.511 55.6258 108.078 59.0041 111.201 60.5349C113.604 61.7173 116.589 61.5906 120.071 60.2921C126.529 57.79 130.064 51.9836 128.466 46.4938C126.814 40.8141 120.474 37.6575 114.027 39.3044L113.36 39.4839Z" fill="#AAAAAA"/>
<path d="M146.736 51.3077C144.437 50.6952 141.988 51.0183 139.927 52.2062C137.867 53.394 136.364 55.3492 135.749 57.642C133.71 63.7022 130.243 69.1857 125.638 73.6316C121.032 78.0774 115.424 81.3555 109.285 83.1904C109.041 83.2643 108.819 83.3593 108.586 83.4543C116.462 74.2062 119.457 63.0262 115.7 52.4268C109.835 32.0831 86.6742 21.5998 61.65 29.7605C37.7268 37.5623 22.8117 58.1382 28.1468 77.7429C31.693 90.7388 43.1465 99.9129 57.5428 102.436C57.4061 104.742 57.4663 107.055 57.7228 109.351C58.2839 113.437 124.083 109.773 124.083 109.773C123.766 106.606 122.464 100.916 120.707 98.0866C128.37 94.7852 135.233 89.8804 140.83 83.704C146.428 77.5276 150.63 70.2238 153.151 62.2872C153.752 59.9832 153.415 57.5357 152.213 55.4787C151.011 53.4218 149.042 51.9224 146.736 51.3077ZM74.395 102.383C74.6385 102.383 74.8713 102.309 75.1042 102.257L74.6491 102.415L74.395 102.383Z" fill="black"/>
<path d="M102.849 56.1963C107.633 70.4907 96.4975 84.8063 79.1691 90.0321C61.1737 95.4585 44.8508 88.0051 41.0612 74.0802C37.0175 59.4585 47.5291 44.879 64.7305 40.2972C82.3872 35.4409 98.2653 42.472 102.849 56.1963Z" fill="white"/>
<path d="M78.968 91.1611C69.2928 93.9587 59.4589 93.1986 51.8903 89.0496C49.0175 87.5195 46.4833 85.4277 44.4391 82.8992C42.3948 80.3707 40.8824 77.4573 39.9922 74.3329C39.1 71.1157 38.8679 67.752 39.3099 64.4432C39.7519 61.1345 40.8588 57.9487 42.5644 55.0766C46.8621 47.5705 54.8118 41.7851 64.4129 39.2408C82.4082 34.3951 98.9957 41.3523 103.844 55.879C104.818 58.7877 105.185 61.8644 104.923 64.92C104.661 67.9755 103.775 70.9453 102.32 73.6467C98.2018 81.5646 89.8816 87.92 79.476 91.066L78.968 91.1611ZM64.2541 41.4262C55.5316 43.9493 48.3758 49.2702 44.3956 56.1112C42.8305 58.7432 41.8147 61.6635 41.409 64.6967C41.0034 67.73 41.2163 70.8137 42.0351 73.7628C42.8455 76.6138 44.2253 79.2721 46.0916 81.5779C47.958 83.8838 50.2724 85.7896 52.8958 87.181C60.094 91.1399 69.5257 91.8262 78.8409 88.9968C88.7066 86.0091 96.5611 80.0443 100.414 72.6226C101.739 70.1733 102.547 67.4797 102.789 64.7074C103.031 61.9351 102.702 59.1427 101.822 56.5018C97.3338 43.1048 81.826 36.6755 64.9422 41.2256L64.2541 41.4262Z" fill="#AAAAAA"/>
<path d="M65.6814 63.9289C66.9728 62.9935 67.07 60.9311 65.8985 59.3224C64.727 57.7137 62.7304 57.1679 61.439 58.1032C60.1477 59.0386 60.0505 61.101 61.222 62.7097C62.3935 64.3184 64.3901 64.8643 65.6814 63.9289Z" fill="#050707"/>
<path d="M80.6995 59.4894C81.9909 58.5541 82.088 56.4917 80.9165 54.883C79.745 53.2743 77.7485 52.7284 76.4571 53.6638C75.1657 54.5992 75.0686 56.6615 76.2401 58.2703C77.4116 59.879 79.4081 60.4248 80.6995 59.4894Z" fill="#050707"/>
<path d="M71.1769 81.9977C68.2023 82.9055 65.0299 82.9494 62.031 82.1244C58.2414 81.0687 53.4144 77.7854 51.9324 68.7485C51.8681 68.3345 51.9698 67.9119 52.2154 67.5721C52.461 67.2323 52.8309 67.0026 53.245 66.9326C53.6605 66.8656 54.0857 66.9659 54.4271 67.2113C54.7685 67.4568 54.9983 67.8274 55.0658 68.2417C56.0291 74.101 58.7495 77.8593 62.9308 79.0945C67.906 80.5514 73.5163 78.2183 75.4958 76.0435L75.8663 75.6212C73.8983 74.8885 72.1192 73.7271 70.6583 72.2218C69.9784 71.5449 69.4468 70.7348 69.0969 69.8426C68.7471 68.9503 68.5867 67.9954 68.6258 67.0382C68.7105 65.6024 69.4621 62.2452 74.4796 61.918H74.8289C79.4336 62.657 80.5769 67.3655 80.7251 68.0411C81.1083 69.7869 81.0538 71.6 80.5663 73.3197H80.8521C89.871 74.3754 92.4327 68.4634 92.4962 68.4001C92.5751 68.2085 92.691 68.0343 92.8376 67.8876C92.9841 67.7408 93.1584 67.6244 93.3502 67.5449C93.542 67.4654 93.7475 67.4246 93.9552 67.4246C94.1629 67.4246 94.3685 67.4655 94.5603 67.5449C94.7599 67.6222 94.9416 67.7391 95.0944 67.8886C95.2472 68.0382 95.3679 68.2172 95.4491 68.4147C95.5303 68.6122 95.5704 68.8242 95.5668 69.0377C95.5632 69.2511 95.5162 69.4617 95.4284 69.6564C95.2908 69.9942 91.914 77.8593 80.6087 76.5291C80.1429 76.5291 79.6877 76.5291 79.2537 76.4341C78.8532 77.0624 78.3998 77.6558 77.8987 78.2077C76.0333 80.0412 73.714 81.349 71.1769 81.9977ZM73.3999 65.2857C72.943 65.3639 72.5294 65.603 72.2342 65.9594C71.939 66.3158 71.7816 66.766 71.7909 67.2282C71.779 67.7487 71.8754 68.2661 72.074 68.7476C72.2726 69.2291 72.569 69.6643 72.9446 70.0259C74.1783 71.3106 75.7137 72.2685 77.4118 72.813C77.8516 71.5359 77.9321 70.163 77.6447 68.8435V68.6957C77.6447 68.569 77.0095 65.613 74.5325 65.0957C74.1488 65.1147 73.7687 65.1785 73.3999 65.2857Z" fill="#EE7167"/>
<path d="M80.4181 23.2364L98.8157 0.675734C99.0474 0.387739 99.3614 0.177008 99.7162 0.0716309C100.071 -0.0337465 100.45 -0.0287651 100.802 0.0859196C101.153 0.200604 101.462 0.419531 101.686 0.713525C101.91 1.00752 102.038 1.36262 102.055 1.73145L103.886 31.2916C103.886 31.2916 95.2378 23.8065 80.4181 23.2364Z" fill="#EE7167"/>
<path d="M151.058 26.0261L144.663 28.9854L148.78 37.8341L155.175 34.8749L151.058 26.0261Z" fill="#4285F4"/>
<path d="M6.41287 48.5369L0.0178223 51.4961L4.13443 60.3449L10.5295 57.3857L6.41287 48.5369Z" fill="#E5A0C0"/>
<path d="M160.047 89.4771L155.581 84.0361L142.254 94.9154L146.719 100.356L160.047 89.4771Z" fill="#FBBC05"/>
<path d="M37.5222 29.3757L31.14 26.3887L25.024 39.3864L31.4062 42.3734L37.5222 29.3757Z" fill="#FBBC05"/>
<path d="M49.1553 3.0391L43.451 7.1709L49.1988 15.0637L54.9031 10.9319L49.1553 3.0391Z" fill="#EE7167"/>
<path d="M57.691 109.267L123.851 108.211L124.909 111.906H58.2203L57.691 109.267Z" fill="black"/>
</g>
<defs>
<clipPath id="clip0_76_1279">
<rect width="160" height="111.304" fill="white"/>
</clipPath>
</defs>
</svg>
