<svg width="20" height="15" viewBox="0 0 20 15" fill="none" xmlns="http://www.w3.org/2000/svg">
<path fill-rule="evenodd" clip-rule="evenodd" d="M14.2461 8.55859C15.4915 9.43047 16.3643 10.6117 16.3643 12.1867V14.9992H20.0006V12.1867C20.0006 10.143 16.7552 8.93359 14.2461 8.55859Z" fill="black"/>
<path d="M7.27211 7.5C9.28041 7.5 10.9085 5.82107 10.9085 3.75C10.9085 1.67893 9.28041 0 7.27211 0C5.2638 0 3.63574 1.67893 3.63574 3.75C3.63574 5.82107 5.2638 7.5 7.27211 7.5Z" fill="black"/>
<path fill-rule="evenodd" clip-rule="evenodd" d="M12.7267 7.5C14.7358 7.5 16.363 5.82188 16.363 3.75C16.363 1.67812 14.7358 0 12.7267 0C12.2994 0 11.8994 0.0937498 11.5176 0.225C12.2721 1.19062 12.7267 2.41875 12.7267 3.75C12.7267 5.08125 12.2721 6.30938 11.5176 7.275C11.8994 7.40625 12.2994 7.5 12.7267 7.5Z" fill="black"/>
<path fill-rule="evenodd" clip-rule="evenodd" d="M7.27273 8.4375C4.84545 8.4375 0 9.69375 0 12.1875V15H14.5455V12.1875C14.5455 9.69375 9.7 8.4375 7.27273 8.4375Z" fill="black"/>
</svg>
