<svg width="14" height="17" viewBox="0 0 14 17" fill="none" xmlns="http://www.w3.org/2000/svg">
<rect x="3.33301" y="2.38867" width="9.38889" height="10.3333" fill="#F8F8F8" stroke="black"/>
<circle cx="1.88889" cy="15.1115" r="1.88889" fill="black"/>
<circle cx="11.3332" cy="15.1115" r="1.88889" fill="black"/>
<rect x="11.333" y="13.2227" width="1.88889" height="1.88889" fill="black"/>
<rect x="1.88867" y="13.2227" width="9.44444" height="3.77778" fill="black"/>
<mask id="path-6-inside-1_13_7437" fill="white">
<path fill-rule="evenodd" clip-rule="evenodd" d="M11.3332 13.2217H9.44434V15.1106C9.44434 16.1538 10.29 16.9995 11.3332 16.9995C12.3764 16.9995 13.2221 16.1538 13.2221 15.1106C13.2221 14.0674 12.3764 13.2217 11.3332 13.2217Z"/>
</mask>
<path fill-rule="evenodd" clip-rule="evenodd" d="M11.3332 13.2217H9.44434V15.1106C9.44434 16.1538 10.29 16.9995 11.3332 16.9995C12.3764 16.9995 13.2221 16.1538 13.2221 15.1106C13.2221 14.0674 12.3764 13.2217 11.3332 13.2217Z" fill="#F8F8F8"/>
<path d="M9.44434 13.2217V12.2217H8.44434V13.2217H9.44434ZM9.44434 14.2217H11.3332V12.2217H9.44434V14.2217ZM10.4443 15.1106V13.2217H8.44434V15.1106H10.4443ZM11.3332 15.9995C10.8423 15.9995 10.4443 15.6015 10.4443 15.1106H8.44434C8.44434 16.7061 9.73774 17.9995 11.3332 17.9995V15.9995ZM12.2221 15.1106C12.2221 15.6015 11.8241 15.9995 11.3332 15.9995V17.9995C12.9287 17.9995 14.2221 16.7061 14.2221 15.1106H12.2221ZM11.3332 14.2217C11.8241 14.2217 12.2221 14.6196 12.2221 15.1106H14.2221C14.2221 13.5151 12.9287 12.2217 11.3332 12.2217V14.2217Z" fill="black" mask="url(#path-6-inside-1_13_7437)"/>
<rect x="3.77734" y="10.3887" width="8.5" height="2.83333" fill="#F8F8F8"/>
<rect x="10.3887" y="12.2773" width="1.88889" height="2.83333" fill="#F8F8F8"/>
<rect x="7.13184" width="2.31541" height="3.95593" transform="rotate(7.56465 7.13184 0)" fill="black"/>
</svg>
