<svg width="18" height="10" viewBox="0 0 18 10" fill="none" xmlns="http://www.w3.org/2000/svg">
<path d="M16.9416 0.958334C16.8149 0.885194 16.6712 0.846688 16.525 0.846688C16.3787 0.846688 16.235 0.885194 16.1083 0.958334L13.1666 2.40833C13.1429 1.76131 12.8691 1.14873 12.4028 0.699533C11.9365 0.250337 11.3141 -0.000434812 10.6666 5.65964e-07H3.16663C2.50358 5.65964e-07 1.8677 0.263393 1.39886 0.732234C0.930018 1.20107 0.666626 1.83696 0.666626 2.5V7.5C0.666626 8.16304 0.930018 8.79893 1.39886 9.26777C1.8677 9.73661 2.50358 10 3.16663 10H10.6666C11.3141 10.0004 11.9365 9.74966 12.4028 9.30047C12.8691 8.85127 13.1429 8.23869 13.1666 7.59167L16.1333 9.075C16.2469 9.13323 16.3723 9.1646 16.5 9.16667C16.656 9.16717 16.809 9.12386 16.9416 9.04167C17.0617 8.96661 17.1607 8.86218 17.2292 8.73825C17.2978 8.61431 17.3336 8.47495 17.3333 8.33333V1.66667C17.3336 1.52505 17.2978 1.38569 17.2292 1.26175C17.1607 1.13782 17.0617 1.03339 16.9416 0.958334V0.958334ZM11.5 7.5C11.5 7.72101 11.4122 7.93298 11.2559 8.08926C11.0996 8.24554 10.8876 8.33333 10.6666 8.33333H3.16663C2.94561 8.33333 2.73365 8.24554 2.57737 8.08926C2.42109 7.93298 2.33329 7.72101 2.33329 7.5V2.5C2.33329 2.27899 2.42109 2.06703 2.57737 1.91074C2.73365 1.75446 2.94561 1.66667 3.16663 1.66667H10.6666C10.8876 1.66667 11.0996 1.75446 11.2559 1.91074C11.4122 2.06703 11.5 2.27899 11.5 2.5V7.5ZM15.6666 6.98333L13.1666 5.73333V4.26667L15.6666 3.01667V6.98333Z" fill="white"/>
</svg>
