<svg width="34" height="34" viewBox="0 0 34 34" fill="none" xmlns="http://www.w3.org/2000/svg">
<path d="M10.933 22.5497C10.5971 22.8318 10.3859 23.235 10.3454 23.6718C10.3048 24.1086 10.4381 24.5438 10.7163 24.883C10.8563 25.0518 11.0281 25.1913 11.222 25.2935C11.4159 25.3958 11.6281 25.4588 11.8464 25.4789C12.0647 25.499 12.2848 25.4759 12.4942 25.4108C12.7035 25.3457 12.8979 25.24 13.0663 25.0997C14.1805 24.2014 15.5685 23.7115 16.9997 23.7115C18.4308 23.7115 19.8189 24.2014 20.933 25.0997C21.1014 25.24 21.2959 25.3457 21.5052 25.4108C21.7146 25.4759 21.9347 25.499 22.153 25.4789C22.3713 25.4588 22.5834 25.3958 22.7774 25.2935C22.9713 25.1913 23.1431 25.0518 23.283 24.883C23.5613 24.5438 23.6946 24.1086 23.654 23.6718C23.6134 23.235 23.4023 22.8318 23.0663 22.5497C21.3466 21.1673 19.2062 20.4137 16.9997 20.4137C14.7932 20.4137 12.6528 21.1673 10.933 22.5497ZM11.9997 15.333C12.3293 15.333 12.6516 15.2353 12.9256 15.0521C13.1997 14.869 13.4133 14.6087 13.5395 14.3041C13.6656 13.9996 13.6986 13.6645 13.6343 13.3412C13.57 13.0179 13.4113 12.7209 13.1782 12.4878C12.9451 12.2547 12.6481 12.096 12.3248 12.0317C12.0015 11.9674 11.6664 12.0004 11.3619 12.1265C11.0573 12.2527 10.797 12.4663 10.6139 12.7404C10.4308 13.0145 10.333 13.3367 10.333 13.6663C10.333 14.1084 10.5086 14.5323 10.8212 14.8449C11.1337 15.1574 11.5577 15.333 11.9997 15.333ZM16.9997 0.333008C13.7033 0.333008 10.481 1.31049 7.74018 3.14185C4.99936 4.9732 2.86315 7.57618 1.60169 10.6216C0.340229 13.6671 0.0101736 17.0182 0.653261 20.2512C1.29635 23.4842 2.88369 26.4539 5.21457 28.7848C7.54544 31.1157 10.5152 32.703 13.7482 33.3461C16.9812 33.9892 20.3323 33.6591 23.3777 32.3977C26.4232 31.1362 29.0261 29 30.8575 26.2592C32.6889 23.5184 33.6663 20.296 33.6663 16.9997C33.6663 14.811 33.2353 12.6437 32.3977 10.6216C31.5601 8.59952 30.3324 6.7622 28.7848 5.21456C27.2372 3.66692 25.3998 2.43926 23.3777 1.60168C21.3556 0.764104 19.1884 0.333008 16.9997 0.333008V0.333008ZM16.9997 30.333C14.3626 30.333 11.7847 29.551 9.59208 28.0859C7.39942 26.6209 5.69046 24.5385 4.68129 22.1021C3.67212 19.6658 3.40808 16.9849 3.92255 14.3985C4.43701 11.8121 5.70689 9.43628 7.57159 7.57158C9.43629 5.70688 11.8121 4.43701 14.3985 3.92254C16.9849 3.40807 19.6658 3.67211 22.1021 4.68128C24.5385 5.69045 26.6209 7.39942 28.0859 9.59207C29.551 11.7847 30.333 14.3626 30.333 16.9997C30.333 20.5359 28.9283 23.9273 26.4278 26.4278C23.9273 28.9283 20.5359 30.333 16.9997 30.333V30.333ZM21.9997 11.9997C21.67 11.9997 21.3478 12.0974 21.0737 12.2806C20.7996 12.4637 20.586 12.724 20.4599 13.0285C20.3337 13.3331 20.3007 13.6682 20.365 13.9915C20.4293 14.3148 20.5881 14.6118 20.8212 14.8449C21.0543 15.0779 21.3512 15.2367 21.6745 15.301C21.9978 15.3653 22.3329 15.3323 22.6375 15.2061C22.942 15.08 23.2023 14.8664 23.3855 14.5923C23.5686 14.3182 23.6663 13.996 23.6663 13.6663C23.6663 13.2243 23.4908 12.8004 23.1782 12.4878C22.8656 12.1753 22.4417 11.9997 21.9997 11.9997Z" fill="#2563D7"/>
</svg>
