<svg width="90" height="72" viewBox="0 0 90 72" fill="none" xmlns="http://www.w3.org/2000/svg">
<g clip-path="url(#clip0_909_4650)">
<path d="M88.6077 9.09808C88.6077 7.52061 88.0011 6.00775 86.9213 4.89231C85.8415 3.77687 84.377 3.15023 82.85 3.15023C81.3229 3.15023 79.8584 3.77687 78.7787 4.89231C77.6989 6.00775 77.0923 7.52061 77.0923 9.09808C77.0923 10.1344 77.3544 11.1527 77.8526 12.0522C78.3509 12.9516 79.0679 13.701 79.9328 14.226L71.07 29.4589L64.8041 40.2039L59.6242 31.2641L49.0069 13.0537C49.727 12.442 50.3076 11.6736 50.7071 10.8033C51.1067 9.93306 51.3154 8.98243 51.3183 8.01927C51.3192 7.15919 51.156 6.30737 50.8381 5.51248C50.5201 4.7176 50.0535 3.99525 49.4651 3.38675C48.8767 2.77825 48.178 2.29551 47.4089 1.96615C46.6397 1.6368 45.8153 1.46728 44.9827 1.46729C43.3006 1.46729 41.6874 2.15757 40.4979 3.38631C39.3084 4.61505 38.6402 6.28157 38.6402 8.01927C38.6431 8.98243 38.8518 9.93306 39.2514 10.8033C39.6509 11.6736 40.2315 12.442 40.9516 13.0537L31.4065 29.4589L25.1405 40.2039L19.9816 31.2641L10.0675 14.226C10.9324 13.701 11.6494 12.9516 12.1477 12.0522C12.6459 11.1527 12.908 10.1344 12.908 9.09808C12.908 7.52061 12.3014 6.00775 11.2216 4.89231C10.1419 3.77687 8.67735 3.15023 7.15031 3.15023C5.62327 3.15023 4.15877 3.77687 3.07898 4.89231C1.9992 6.00775 1.39258 7.52061 1.39258 9.09808C1.39908 10.3461 1.785 11.5605 2.49584 12.5697C3.20668 13.5789 4.2065 14.3319 5.35406 14.7223V64.1104C5.36139 65.7383 5.99112 67.2972 7.10607 68.4476C8.22102 69.598 9.73086 70.2467 11.3067 70.2524H78.7006C80.2758 70.2467 81.7848 69.5978 82.8987 68.4472C84.0125 67.2965 84.6407 65.7376 84.6462 64.1104V40.1751V14.7223C85.7938 14.3319 86.7936 13.5789 87.5045 12.5697C88.2153 11.5605 88.6012 10.3461 88.6077 9.09808Z" fill="#CCCCCC"/>
<path d="M78.7004 71.7194H11.3066C9.36029 71.7175 7.49419 70.9184 6.11731 69.4974C4.74044 68.0765 3.96516 66.1495 3.96148 64.1389V15.7146C2.77062 15.1017 1.76895 14.1576 1.0691 12.9887C0.369255 11.8198 -0.00100854 10.4723 2.06322e-06 9.09786C0.00368209 7.14007 0.758183 5.26356 2.0983 3.87919C3.43842 2.49481 5.25496 1.7154 7.15017 1.7116C9.04537 1.7154 10.8619 2.49481 12.202 3.87919C13.5421 5.26356 14.2967 7.14007 14.3003 9.09786C14.2975 10.1366 14.0835 11.1631 13.6721 12.1109C13.2607 13.0587 12.6612 13.9067 11.9123 14.5998L25.1404 37.4131L39.211 13.2837C37.9571 11.822 37.266 9.93603 37.2685 7.9831C37.2704 5.86449 38.0859 3.83321 39.5361 2.33513C40.9863 0.837051 42.9526 -0.00541985 45.0035 -0.00732422C47.0532 -0.00351687 49.0177 0.839781 50.4664 2.33765C51.9151 3.83553 52.7296 5.86574 52.7315 7.9831C52.734 9.93603 52.0429 11.822 50.7891 13.2837L64.8248 37.4059L78.0529 14.5926C77.304 13.8995 76.7045 13.0515 76.2931 12.1037C75.8817 11.1559 75.6677 10.1294 75.6649 9.09068C75.6686 7.13289 76.4231 5.25636 77.7632 3.87199C79.1033 2.48762 80.9198 1.7082 82.815 1.7044C84.7103 1.7082 86.5268 2.48762 87.8669 3.87199C89.207 5.25636 89.9615 7.13289 89.9652 9.09068C89.9678 10.4655 89.5983 11.8136 88.8982 12.9828C88.1982 14.1521 87.1956 15.0958 86.0037 15.7074V64.1317C86.0038 66.1367 85.2356 68.0601 83.8672 69.4818C82.4987 70.9035 80.6412 71.708 78.7004 71.7194ZM7.15017 4.58843C5.99242 4.58843 4.88207 5.06352 4.06342 5.9092C3.24477 6.75489 2.78487 7.90188 2.78487 9.09786C2.77884 10.0536 3.06692 10.9866 3.60751 11.7622C4.14809 12.5378 4.91323 13.1159 5.79253 13.4131L6.74635 13.7368V64.1677C6.75003 65.4152 7.2319 66.6105 8.08652 67.492C8.94112 68.3735 10.0989 68.8694 11.3066 68.8713H78.7004C79.9069 68.8675 81.0629 68.3707 81.916 67.4895C82.7691 66.6082 83.25 65.414 83.2537 64.1677V13.7368L84.2075 13.4131C85.088 13.1179 85.8543 12.5402 86.3952 11.7642C86.9361 10.9881 87.2233 10.0541 87.2151 9.09786C87.2151 7.90188 86.7552 6.75489 85.9366 5.9092C85.1179 5.06352 84.0076 4.58843 82.8498 4.58843C81.6921 4.58843 80.5818 5.06352 79.7631 5.9092C78.9445 6.75489 78.4846 7.90188 78.4846 9.09786C78.4871 9.88304 78.6874 10.654 79.0659 11.335C79.4443 12.0159 79.9878 12.5834 80.6428 12.9816L81.8543 13.7008L64.8248 42.9726L47.2105 12.7083L48.1434 11.9172C48.7082 11.438 49.1629 10.8352 49.4748 10.1524C49.7866 9.46955 49.9478 8.7237 49.9466 7.9687C49.9466 6.61374 49.4261 5.31418 48.4992 4.3554C47.5724 3.39663 46.3151 2.85704 45.0035 2.85513C43.6912 2.85704 42.4332 3.3964 41.5053 4.35496C40.5774 5.31353 40.0552 6.61308 40.0534 7.9687C40.0522 8.7237 40.2134 9.46955 40.5252 10.1524C40.8371 10.8352 41.2918 11.438 41.8566 11.9172L42.7895 12.7083L25.1752 42.9726L8.14575 13.7008L9.35716 12.9816C10.0122 12.5834 10.5557 12.0159 10.9341 11.335C11.3126 10.654 11.5129 9.88304 11.5155 9.09786C11.5155 7.90188 11.0555 6.75489 10.2369 5.9092C9.41822 5.06352 8.30791 4.58843 7.15017 4.58843Z" fill="#777777"/>
<path d="M85.1266 64.8081H4.87366C2.95111 64.8081 1.39258 66.4181 1.39258 68.4041C1.39258 70.3902 2.95111 72.0002 4.87366 72.0002H85.1266C87.0492 72.0002 88.6077 70.3902 88.6077 68.4041C88.6077 66.4181 87.0492 64.8081 85.1266 64.8081Z" fill="#777777"/>
<path d="M45.0033 48.0002C48.1832 48.0002 50.761 45.3373 50.761 42.0523C50.761 38.7674 48.1832 36.1045 45.0033 36.1045C41.8234 36.1045 39.2456 38.7674 39.2456 42.0523C39.2456 45.3373 41.8234 48.0002 45.0033 48.0002Z" fill="#7726FB"/>
<path d="M43.5973 42.0449C44.82 42.0449 45.8112 41.0209 45.8112 39.7578C45.8112 38.4947 44.82 37.4707 43.5973 37.4707C42.3745 37.4707 41.3833 38.4947 41.3833 39.7578C41.3833 41.0209 42.3745 42.0449 43.5973 42.0449Z" fill="white"/>
<path d="M85.1266 52.8115H4.87366C2.95111 52.8115 1.39258 54.4215 1.39258 56.4076C1.39258 58.3936 2.95111 60.0036 4.87366 60.0036H85.1266C87.0492 60.0036 88.6077 58.3936 88.6077 56.4076C88.6077 54.4215 87.0492 52.8115 85.1266 52.8115Z" fill="#777777"/>
</g>
<defs>
<clipPath id="clip0_909_4650">
<rect width="90" height="72" fill="white"/>
</clipPath>
</defs>
</svg>
