<svg width="34" height="34" viewBox="0 0 34 34" fill="none" xmlns="http://www.w3.org/2000/svg">
<path d="M11.9997 15.333C12.3293 15.333 12.6516 15.2353 12.9256 15.0521C13.1997 14.869 13.4133 14.6087 13.5395 14.3041C13.6656 13.9996 13.6986 13.6645 13.6343 13.3412C13.57 13.0179 13.4113 12.7209 13.1782 12.4878C12.9451 12.2547 12.6481 12.096 12.3248 12.0317C12.0015 11.9674 11.6664 12.0004 11.3619 12.1265C11.0573 12.2527 10.797 12.4663 10.6139 12.7404C10.4308 13.0145 10.333 13.3367 10.333 13.6663C10.333 14.1084 10.5086 14.5323 10.8212 14.8449C11.1337 15.1574 11.5577 15.333 11.9997 15.333ZM16.9997 0.333008C13.7033 0.333008 10.481 1.31049 7.74018 3.14185C4.99936 4.9732 2.86315 7.57618 1.60169 10.6216C0.340229 13.6671 0.0101736 17.0182 0.653261 20.2512C1.29635 23.4842 2.88369 26.4539 5.21457 28.7848C7.54544 31.1157 10.5152 32.703 13.7482 33.3461C16.9812 33.9892 20.3323 33.6591 23.3777 32.3977C26.4232 31.1362 29.0261 29 30.8575 26.2592C32.6889 23.5184 33.6663 20.296 33.6663 16.9997C33.6663 14.811 33.2353 12.6437 32.3977 10.6216C31.5601 8.59952 30.3324 6.7622 28.7848 5.21456C27.2372 3.66692 25.3998 2.43926 23.3777 1.60168C21.3556 0.764104 19.1884 0.333008 16.9997 0.333008V0.333008ZM16.9997 30.333C14.3626 30.333 11.7847 29.551 9.59208 28.0859C7.39942 26.6209 5.69046 24.5385 4.68129 22.1021C3.67212 19.6658 3.40808 16.9849 3.92255 14.3985C4.43701 11.8121 5.70689 9.43628 7.57159 7.57158C9.43629 5.70688 11.8121 4.43701 14.3985 3.92254C16.9849 3.40807 19.6658 3.67211 22.1021 4.68128C24.5385 5.69045 26.6209 7.39942 28.0859 9.59207C29.551 11.7847 30.333 14.3626 30.333 16.9997C30.333 20.5359 28.9283 23.9273 26.4278 26.4278C23.9273 28.9283 20.5359 30.333 16.9997 30.333V30.333ZM21.9997 18.6663H11.9997C11.5577 18.6663 11.1337 18.8419 10.8212 19.1545C10.5086 19.4671 10.333 19.891 10.333 20.333C10.333 22.1011 11.0354 23.7968 12.2856 25.0471C13.5359 26.2973 15.2316 26.9997 16.9997 26.9997C18.7678 26.9997 20.4635 26.2973 21.7137 25.0471C22.964 23.7968 23.6663 22.1011 23.6663 20.333C23.6663 19.891 23.4908 19.4671 23.1782 19.1545C22.8656 18.8419 22.4417 18.6663 21.9997 18.6663ZM16.9997 23.6663C16.4151 23.6657 15.841 23.5114 15.335 23.2189C14.8289 22.9264 14.4086 22.5059 14.1163 21.9997H19.883C19.5907 22.5059 19.1705 22.9264 18.6644 23.2189C18.1583 23.5114 17.5842 23.6657 16.9997 23.6663ZM21.9997 11.9997C21.67 11.9997 21.3478 12.0974 21.0737 12.2806C20.7996 12.4637 20.586 12.724 20.4599 13.0285C20.3337 13.3331 20.3007 13.6682 20.365 13.9915C20.4293 14.3148 20.5881 14.6118 20.8212 14.8449C21.0543 15.0779 21.3512 15.2367 21.6745 15.301C21.9978 15.3653 22.3329 15.3323 22.6375 15.2061C22.942 15.08 23.2023 14.8664 23.3855 14.5923C23.5686 14.3182 23.6663 13.996 23.6663 13.6663C23.6663 13.2243 23.4908 12.8004 23.1782 12.4878C22.8656 12.1753 22.4417 11.9997 21.9997 11.9997Z" fill="white"/>
</svg>
