<svg width="25" height="25" viewBox="0 0 25 25" fill="none" xmlns="http://www.w3.org/2000/svg">
<path d="M10.7139 17.8569C10.7139 18.839 11.5174 19.6426 12.4996 19.6426C13.4817 19.6426 14.2853 18.839 14.2853 17.8569C14.2853 16.8747 13.4817 16.0711 12.4996 16.0711C11.5174 16.0711 10.7139 16.8747 10.7139 17.8569ZM10.7139 7.14258C10.7139 8.12472 11.5174 8.92829 12.4996 8.92829C13.4817 8.92829 14.2853 8.12472 14.2853 7.14258C14.2853 6.16043 13.4817 5.35686 12.4996 5.35686C11.5174 5.35686 10.7139 6.16043 10.7139 7.14258ZM10.7139 12.4997C10.7139 13.4819 11.5174 14.2854 12.4996 14.2854C13.4817 14.2854 14.2853 13.4819 14.2853 12.4997C14.2853 11.5176 13.4817 10.714 12.4996 10.714C11.5174 10.714 10.7139 11.5176 10.7139 12.4997Z" fill="black"/>
</svg>
